
General:

Format                           : Matroska
File size                        : 4.05 GiB
Duration                         : 2h 39mn
Overall bit rate                 : 3 640 Kbps
Encoded date                     : UTC 2013-02-23 00:34:45
Writing application              : mkvmerge v5.3.0 ('I could have danced') built on Feb  9 2012 10:38:07
Writing library                  : libebml v1.2.3 + libmatroska v1.3.0

Video
ID                               : 1
Format                           : AVC
Format/Info                      : Advanced Video Codec
Format profile                   : High@L4.0
Format settings, CABAC           : Yes
Format settings, ReFrames        : 3 frames
Muxing mode                      : Header stripping
Codec ID                         : V_MPEG4/ISO/AVC
Duration                         : 2h 39mn
Bit rate mode                    : Variable
Bit rate                         : 3 155 Kbps
Maximum bit rate                 : 25.0 Mbps
Width                            : 1 920 pixels
Height                           : 1 080 pixels
Display aspect ratio             : 16:9
Frame rate                       : 23.976 fps
Color space                      : YUV
Chroma subsampling               : 4:2:0
Bit depth                        : 8 bits
Scan type                        : Progressive
Bits/(Pixel*Frame)               : 0.063
Stream size                      : 3.47 GiB (86%)
Writing library                  : x264 core 105 r1732 2b04482


Audio
ID                               : 2
Format                           : AC-3
Format/Info                      : Audio Coding 3
Mode extension                   : CM (complete main)
Muxing mode                      : Header stripping
Codec ID                         : A_AC3
Duration                         : 2h 39mn
Bit rate mode                    : Constant
Bit rate                         : 448 Kbps
Channel(s)                       : 6 channels
Channel positions                : Front: L C R, Side: L R, LFE
Sampling rate                    : 48.0 KHz
Bit depth                        : 16 bits
Compression mode                 : Lossy
Stream size                      : 511 MiB (12%)


audio: latino
video: bluray 1080p y 800p
imdb: http://www.imdb.com/title/tt1345836/?ref_=sr_1